<svg xmlns="http://www.w3.org/2000/svg" xmlns:xlink="http://www.w3.org/1999/xlink" version="1.1" x="0px" y="0px" viewBox="0 0 66 82.5" enable-background="new 0 0 66 66" xml:space="preserve"><g><path d="M64.5,58.4H62v-3c0-0.6-0.4-1-1-1h-2.8v-3c0-0.6-0.4-1-1-1H57V25.9h0.2c0.6,0,1-0.4,1-1v-3H61c0.6,0,1-0.4,1-1v-4h2.5   c0.5,0,0.9-0.3,1-0.8c0.1-0.5-0.1-0.9-0.6-1.1L33.4,0.6c-0.3-0.1-0.6-0.1-0.8,0L1.1,15c-0.4,0.2-0.7,0.7-0.6,1.1   C0.6,16.6,1,17,1.5,17H4v4c0,0.6,0.4,1,1,1h2.8v3c0,0.6,0.4,1,1,1H9v24.5H8.8c-0.6,0-1,0.4-1,1v3H5c-0.6,0-1,0.4-1,1v3H1.5   c-0.6,0-1,0.4-1,1v5.1c0,0.6,0.4,1,1,1h63c0.6,0,1-0.4,1-1v-5.1C65.5,58.8,65.1,58.4,64.5,58.4z M45.1,54.4v-3c0-0.6-0.4-1-1-1   h-0.2V25.9h0.2c0.6,0,1-0.4,1-1v-3h2.1v3c0,0.6,0.4,1,1,1h0.2v24.5h-0.2c-0.6,0-1,0.4-1,1v3H45.1z M31.9,54.4v-3c0-0.6-0.4-1-1-1   h-0.2V25.9h0.2c0.6,0,1-0.4,1-1v-3h2.1v3c0,0.6,0.4,1,1,1h0.2v24.5h-0.2c-0.6,0-1,0.4-1,1v3H31.9z M18.8,54.4v-3c0-0.6-0.4-1-1-1   h-0.2V25.9h0.2c0.6,0,1-0.4,1-1v-3h2.1v3c0,0.6,0.4,1,1,1h0.2v24.5h-0.2c-0.6,0-1,0.4-1,1v3H18.8z M28.8,50.4h-4.6V25.9h4.6V50.4z    M29.9,22v2h-0.2h-6.6h-0.2v-2H29.9z M22.9,52.4h0.2h6.6h0.2v2h-7V52.4z M41.9,50.4h-4.6V25.9h4.6V50.4z M43.1,22v2h-0.2h-6.6h-0.2   v-2H43.1z M36.1,52.4h0.2h6.6h0.2v2h-7V52.4z M49.2,52.4h0.2H56h0.2v2h-7V52.4z M55,50.4h-4.6V25.9H55V50.4z M56.2,23.9H56h-6.6   h-0.2v-2h7V23.9z M33,2.6L59.9,15H6.1L33,2.6z M6,17h54v3c-1.9,0-37.8-0.1-38.3,0c-0.1,0-4.4,0-15.7,0V17z M16.8,22v2h-0.2H10H9.8   v-2H16.8z M11,25.9h4.6v24.5H11V25.9z M9.8,52.4H10h6.6h0.2v2h-7V52.4z M6,56.4c14.7,0-1.3,0,54,0v2H6V56.4z M63.5,63.5h-61v-3.1H5   h56h2.5V63.5z"/></g><text x="0" y="81" fill="#000000" font-size="5px" font-weight="bold" font-family="'Helvetica Neue', Helvetica, Arial-Unicode, Arial, Sans-serif">Created by ProSymbols</text><text x="0" y="86" fill="#000000" font-size="5px" font-weight="bold" font-family="'Helvetica Neue', Helvetica, Arial-Unicode, Arial, Sans-serif">from the Noun Project</text></svg>