<svg width="512" height="512" xmlns="http://www.w3.org/2000/svg">

 <g>
  <title>background</title>
  <rect fill="none" id="canvas_background" height="602" width="802" y="-1" x="-1"/>
 </g>
 <g>
  <title>Layer 1</title>
  <ellipse stroke="null" ry="163.49999" rx="162.5" id="svg_14" cy="254.99999" cx="254" stroke-width="1.5" fill="#ff0000"/>
  <g id="XMLID_37_">
   <g id="XMLID_255_">
    <path d="m470.5,214.5c-19.013,0 -35.06799,12.856 -39.95999,30.328c-5.586,-2.146 -9.862,-7.07201 -10.991,-13.28101l-1.11002,-5.97499c-5.51199,-29.563 -18.85498,-56.71301 -38.742,-79.12601l22.43002,-22.43c6.478,3.974 14.09,6.269 22.23099,6.269c23.513,0 42.64301,-19.12901 42.64301,-42.64301s-19.13,-42.642 -42.64401,-42.642s-42.64301,19.129 -42.64301,42.643c0,8.14 2.29602,15.75301 6.27002,22.231l-22.42902,22.42899c-22.41998,-19.90199 -49.53299,-33.24599 -79.048,-38.74899l-6.09,-1.108c-6.181,-1.125 -11.10001,-5.4 -13.245,-10.985c17.47202,-4.893 30.328,-20.948 30.328,-39.961c0,-22.883 -18.617,-41.5 -41.5,-41.5s-41.5,18.617 -41.5,41.5c0,19.005 12.84599,35.055 30.30701,39.954c-1.931,4.984 -6.076,8.988 -11.37901,10.55199c-5.297,1.563 -8.32399,7.125 -6.76099,12.42101c1.56299,5.298 7.12599,8.322 12.42099,6.761c6.60901,-1.951 12.38701,-5.665 16.877,-10.53101c5.37201,5.817 12.595,9.958 20.87,11.464l6.047,1.101c28.76102,5.362 54.983,19.216 75.83102,40.064c20.82999,20.83 34.68399,47.093 40.06299,75.94501l1.10199,5.93199c1.50302,8.257 5.63,15.468 11.427,20.836c-5.797,5.36801 -9.92499,12.57901 -11.427,20.83502l-1.10098,6.047c-5.362,28.76099 -19.216,54.983 -40.064,75.83099s-47.069,34.702 -75.789,40.05701l-6.08801,1.108c-8.25601,1.50198 -15.466,5.629 -20.83398,11.42499c-5.36301,-5.79501 -12.56401,-9.91901 -20.80301,-11.418l-5.961,-1.10699c-28.858,-5.38 -55.12201,-19.23401 -75.95201,-40.064c-20.84799,-20.84802 -34.702,-47.069 -40.057,-75.789l-1.10799,-6.08801c-1.502,-8.25601 -5.62901,-15.466 -11.425,-20.83398c5.795,-5.36301 9.919,-12.56401 11.418,-20.80301l1.107,-5.961c5.38,-28.858 19.234,-55.12201 40.064,-75.95201c2.633,-2.634 5.39499,-5.194 8.20999,-7.61c4.19,-3.59799 4.67101,-9.911 1.073,-14.10199c-3.59799,-4.19 -9.90999,-4.67001 -14.10199,-1.073c-0.683,0.58699 -1.362,1.18399 -2.039,1.78499l-22.413,-22.41299c3.974,-6.478 6.269,-14.09 6.269,-22.231c0.002,-23.513 -19.12701,-42.642 -42.64001,-42.642s-42.643,19.129 -42.643,42.643s19.129,42.643 42.643,42.643c8.14,0 15.75301,-2.296 22.231,-6.269l22.43,22.43001c-19.888,22.41299 -33.231,49.56299 -38.744,79.133l-1.115,6.004c-1.125,6.18102 -5.4,11.10001 -10.985,13.245c-4.892,-17.47299 -20.947,-30.32899 -39.96,-30.32899c-22.883,0 -41.5,18.617 -41.5,41.5s18.617,41.5 41.5,41.5c19.013,0 35.068,-12.85599 39.96,-30.328c5.585,2.14502 9.86,7.06403 10.985,13.246l1.116,6.13101c5.496,29.47699 18.839,56.586 38.741,79.00598l-22.429,22.42902c-6.478,-3.974 -14.09,-6.26901 -22.231,-6.26901c-23.513,0 -42.642,19.129 -42.642,42.642c0,23.51401 19.129,42.64301 42.64301,42.64301s42.643,-19.129 42.643,-42.64301c0,-8.13998 -2.296,-15.75299 -6.269,-22.23099l22.42999,-22.42999c22.414,19.88699 49.565,33.23099 79.134,38.74399l6.004,1.11499c6.181,1.125 11.10001,5.39999 13.24501,10.98502c-17.472,4.89099 -30.328,20.94699 -30.328,39.95999c0,22.883 18.61699,41.5 41.5,41.5s41.5,-18.617 41.5,-41.5c0,-19.013 -12.85602,-35.069 -30.328,-39.95999c2.14499,-5.58502 7.064,-9.86002 13.246,-10.98502l6.13098,-1.116c29.47702,-5.496 56.58603,-18.83899 79.00601,-38.741l22.42902,22.42902c-3.974,6.478 -6.27002,14.09097 -6.27002,22.23099c0,23.513 19.129,42.64301 42.64301,42.64301c23.51199,-0.00101 42.64099,-19.13 42.64099,-42.64401c0,-23.513 -19.129,-42.64301 -42.64297,-42.64301c-8.14001,0 -15.75302,2.29602 -22.23102,6.26901l-22.42899,-22.42902c19.90198,-22.42099 33.24597,-49.53299 38.74899,-79.04797l1.108,-6.09003c1.125,-6.181 5.39999,-11.09998 10.98499,-13.245c4.89102,17.47202 20.94702,30.328 39.96002,30.328c22.883,0 41.5,-18.617 41.5,-41.5s-18.61603,-41.49899 -41.49902,-41.49899zm-236,-173c0,-11.855 9.645,-21.5 21.5,-21.5s21.5,9.645 21.5,21.5s-9.64499,21.5 -21.5,21.5s-21.5,-9.645 -21.5,-21.5zm189.85699,23.5c12.48599,0 22.64301,10.157 22.64301,22.643c0,12.485 -10.15701,22.64301 -22.64301,22.64301c-12.48502,0 -22.64301,-10.15701 -22.64301,-22.64301s10.15799,-22.643 22.64301,-22.643zm-336.71398,45.285c-12.486,0 -22.64301,-10.15701 -22.64301,-22.64201c0,-12.486 10.15701,-22.643 22.64301,-22.643c12.485,0 22.643,10.157 22.643,22.643c-0.001,12.485 -10.158,22.64201 -22.643,22.64201zm-46.14301,167.215c-11.855,0 -21.5,-9.64499 -21.5,-21.5s9.645,-21.5 21.5,-21.5s21.5,9.645 21.5,21.5s-9.645,21.5 -21.5,21.5zm46.14301,169.5c-12.486,0 -22.64301,-10.15701 -22.64301,-22.64301c0,-12.48499 10.15701,-22.64301 22.64301,-22.64301c12.485,0 22.643,10.15701 22.643,22.64301c-0.001,12.48599 -10.158,22.64301 -22.643,22.64301zm189.85699,23.5c0,11.85501 -9.64499,21.5 -21.5,21.5s-21.5,-9.64499 -21.5,-21.5s9.645,-21.5 21.5,-21.5s21.5,9.64499 21.5,21.5zm146.85699,-68.785c12.48499,0 22.64301,10.15698 22.64301,22.64301c0,12.48499 -10.15701,22.642 -22.64301,22.642c-12.48502,0 -22.64301,-10.15701 -22.64301,-22.64301c0,-12.48502 10.15799,-22.642 22.64301,-22.642zm46.14301,-124.215c-11.85501,0 -21.5,-9.64499 -21.5,-21.5s9.64499,-21.5 21.5,-21.5s21.5,9.645 21.5,21.5s-9.64499,21.5 -21.5,21.5z" id="XMLID_273_"/>
    <path d="m290.83301,353.04901c29.31601,0 53.16699,-23.85101 53.16699,-53.16602c0,-29.31598 -23.85098,-53.16699 -53.16699,-53.16699s-53.16699,23.85101 -53.16699,53.16699s23.85098,53.16602 53.16699,53.16602zm0,-86.33301c18.28799,0 33.16699,14.87802 33.16699,33.16699c0,18.28802 -14.87799,33.16602 -33.16699,33.16602s-33.16699,-14.87799 -33.16699,-33.16602c0.00101,-18.28897 14.879,-33.16699 33.16699,-33.16699z" id="XMLID_601_"/>
    <path d="m152.371,228.342c0,21.16 17.214,38.37401 38.37399,38.37401s38.37401,-17.214 38.37401,-38.37401c0,-21.15901 -17.214,-38.373 -38.37401,-38.373c-21.15999,-0.00101 -38.37399,17.21399 -38.37399,38.373zm56.74699,0c0,10.131 -8.243,18.37401 -18.37399,18.37401s-18.37401,-8.243 -18.37401,-18.37401s8.242,-18.373 18.37401,-18.373c10.131,-0.00099 18.37399,8.24101 18.37399,18.373z" id="XMLID_1336_"/>
    <path d="m283.15201,216.295c19.38,0 35.147,-15.767 35.147,-35.147s-15.767,-35.14799 -35.147,-35.14799s-35.147,15.767 -35.147,35.14799c-0.00099,19.38 15.76599,35.147 35.147,35.147zm0,-50.295c8.353,0 15.147,6.795 15.147,15.14799c0,8.35201 -6.79501,15.147 -15.147,15.147c-8.353,0 -15.147,-6.795 -15.147,-15.147c-0.00101,-8.353 6.79401,-15.14799 15.147,-15.14799z" id="XMLID_1340_"/>
    <path d="m193.02,124.06c2.62999,0 5.20999,-1.07 7.06999,-2.93s2.93001,-4.43999 2.93001,-7.07c0,-2.64 -1.07001,-5.21 -2.93001,-7.07999c-1.86,-1.86 -4.44,-2.92001 -7.06999,-2.92001s-5.21001,1.06001 -7.07001,2.92001c-1.86,1.87 -2.92999,4.43999 -2.92999,7.07999c0,2.63 1.06999,5.21 2.92999,7.07s4.44,2.93 7.07001,2.93z" id="XMLID_1341_"/>
   </g>
  </g>
  <ellipse ry="23" rx="23" id="svg_3" cy="87.5" cx="87.5" stroke-width="1.5" fill="#ff0000"/>
  <ellipse ry="23" rx="23" id="svg_4" cy="41.5" cx="257.5" stroke-width="1.5" fill="#ff0000"/>
  <ellipse ry="23" rx="22" id="svg_5" cy="256.5" cx="41.5" stroke-width="1.5" fill="#ff0000"/>
  <ellipse ry="23" rx="23" id="svg_6" cy="424.5" cx="87.5" stroke-width="1.5" fill="#ff0000"/>
  <ellipse ry="23" rx="23" id="svg_7" cy="470.5" cx="256.5" stroke-width="1.5" fill="#ff0000"/>
  <ellipse ry="23" rx="23" id="svg_8" cy="423.5" cx="424.5" stroke-width="1.5" fill="#ff0000"/>
  <ellipse ry="21.5" rx="22" id="svg_9" cy="256" cx="470.5" stroke-width="1.5" fill="#ff0000"/>
  <ellipse ry="23.5" rx="23" id="svg_10" cy="88" cx="424.5" stroke-width="1.5" fill="#ff0000"/>
  <ellipse ry="16.5" rx="16" id="svg_11" cy="182" cx="283.5" stroke-width="1.5" fill="#ff0000"/>
  <ellipse ry="18.5" rx="19" id="svg_12" cy="228" cx="190.5" stroke-width="1.5" fill="#ff0000"/>
  <ellipse ry="34" rx="33.5" id="svg_13" cy="299.5" cx="291" stroke-width="1.5" fill="#ff0000"/>
 </g>
</svg>